# This file uses centimeters as units for non-parametric coordinates.

mtllib calha2.mtl
g default
v 1.092957 -0.201790 0.000000
v 1.092957 -0.171871 0.225617
v 1.092957 -0.086670 0.416887
v 1.092957 0.040843 0.544689
v 1.092957 0.191255 0.589567
v -1.092957 -0.201790 0.000000
v -1.092957 -0.171871 0.225617
v -1.092957 -0.086670 0.416887
v -1.092957 0.040843 0.544689
v -1.092957 0.191255 0.589567
v 1.087772 -0.146732 0.000000
v -1.087772 -0.146732 0.000000
v 1.087772 -0.121004 0.194013
v -1.087772 -0.121004 0.194013
v 1.087772 -0.047738 0.358489
v -1.087772 -0.047738 0.358489
v 1.087772 0.061913 0.468389
v -1.087772 0.061913 0.468389
v 1.087772 0.201790 0.510124
v -1.087772 0.201790 0.510124
v 1.092957 -0.171871 -0.225618
v 1.092957 -0.086670 -0.416887
v 1.092957 0.040843 -0.544689
v 1.092957 0.191255 -0.589567
v -1.092957 -0.171871 -0.225618
v -1.092957 -0.086670 -0.416887
v -1.092957 0.040843 -0.544689
v -1.092957 0.191255 -0.589567
v 1.087772 -0.121004 -0.194013
v -1.087772 -0.121004 -0.194013
v 1.087772 -0.047738 -0.358489
v -1.087772 -0.047738 -0.358489
v 1.087772 0.061913 -0.468389
v -1.087772 0.061913 -0.468389
v 1.087772 0.201790 -0.510124
v -1.087772 0.201790 -0.510124
vt 0.021159 0.202678
vt 0.577972 0.202678
vt 0.577972 0.247683
vt 0.021159 0.247683
vt 0.577972 0.292688
vt 0.021159 0.292688
vt 0.577972 0.337692
vt 0.021159 0.337692
vt 0.577972 0.386361
vt 0.021159 0.386361
vt 0.578779 0.637452
vt 0.578779 0.689789
vt 0.019311 0.689789
vt 0.019311 0.637452
vt 0.578779 0.742125
vt 0.019311 0.742125
vt 0.578779 0.794460
vt 0.019311 0.794460
vt 0.578779 0.846795
vt 0.019311 0.846795
vt 0.793361 0.760382
vt 0.789572 0.778464
vt 0.738357 0.767733
vt 0.745720 0.750397
vt 0.695082 0.738337
vt 0.708479 0.725097
vt 0.666206 0.694720
vt 0.683624 0.687551
vt 0.656018 0.643415
vt 0.674854 0.643381
vt 0.845093 0.381551
vt 0.857777 0.395469
vt 0.813507 0.423770
vt 0.803592 0.408180
vt 0.873726 0.344215
vt 0.890037 0.353571
vt 0.891587 0.299502
vt 0.909773 0.304237
vt 0.897705 0.251272
vt 0.916497 0.251272
vt 0.021159 0.157672
vt 0.577972 0.157672
vt 0.021159 0.112667
vt 0.577972 0.112667
vt 0.021159 0.067663
vt 0.577972 0.067663
vt 0.021159 0.018994
vt 0.577972 0.018994
vt 0.019311 0.585115
vt 0.578779 0.585115
vt 0.019311 0.532779
vt 0.578779 0.532779
vt 0.019311 0.480443
vt 0.578779 0.480443
vt 0.019311 0.428108
vt 0.578779 0.428108
vt 0.792939 0.525964
vt 0.745333 0.536115
vt 0.737910 0.518804
vt 0.789087 0.507895
vt 0.708181 0.561543
vt 0.694737 0.548351
vt 0.683462 0.599179
vt 0.666017 0.592074
vt 0.845093 0.120994
vt 0.803592 0.094366
vt 0.813506 0.078776
vt 0.857777 0.107077
vt 0.873727 0.158329
vt 0.890038 0.148972
vt 0.891589 0.203042
vt 0.909774 0.198306
vt 0.580667 0.965605
vt 0.021201 0.964226
vt 0.022574 0.945802
vt 0.579386 0.947174
vt 0.580123 0.911992
vt 0.023310 0.911992
vt 0.021982 0.893564
vt 0.581450 0.893564
vt 0.019311 0.585115
vt 0.909774 0.198306
vt 0.577972 0.157672
vt 0.891589 0.203042
vt 0.019311 0.532779
vt 0.890038 0.148972
vt 0.577972 0.112667
vt 0.873727 0.158329
vt 0.019311 0.480443
vt 0.857777 0.107077
vt 0.577972 0.067663
vt 0.845093 0.120994
vt 0.021159 0.157672
vt 0.683462 0.599179
vt 0.578779 0.585115
vt 0.666017 0.592074
vt 0.021159 0.112667
vt 0.708181 0.561543
vt 0.578779 0.532779
vt 0.694737 0.548351
vt 0.021159 0.067663
vt 0.745333 0.536115
vt 0.578779 0.480443
vt 0.737910 0.518804
vt 0.578779 0.637452
vt 0.656018 0.643415
vt 0.916497 0.251272
vt 0.019311 0.637452
vt 0.577972 0.202678
vt 0.897705 0.251272
vt 0.674854 0.643381
vt 0.021159 0.202678
vt 0.577972 0.247683
vt 0.891587 0.299502
vt 0.019311 0.689789
vt 0.909773 0.304237
vt 0.577972 0.292688
vt 0.873726 0.344215
vt 0.019311 0.742125
vt 0.890037 0.353571
vt 0.577972 0.337692
vt 0.845093 0.381551
vt 0.019311 0.794460
vt 0.857777 0.395469
vt 0.578779 0.689789
vt 0.666206 0.694720
vt 0.021159 0.247683
vt 0.683624 0.687551
vt 0.578779 0.742125
vt 0.695082 0.738337
vt 0.021159 0.292688
vt 0.708479 0.725097
vt 0.578779 0.794460
vt 0.738357 0.767733
vt 0.021159 0.337692
vt 0.745720 0.750397
vn 0.000000 1.000000 0.000000
vn 0.000000 1.000000 0.000000
vn 0.000000 0.963923 -0.266180
vn 0.000000 0.963923 -0.266180
vn 0.000000 0.963923 -0.266180
vn 0.000000 0.963923 -0.266180
vn 0.000000 0.832050 -0.554700
vn 0.000000 0.832050 -0.554700
vn 0.000000 0.832050 -0.554700
vn 0.000000 0.832050 -0.554700
vn -0.000000 0.519317 -0.854582
vn -0.000000 0.519317 -0.854582
vn -0.000000 0.519317 -0.854582
vn -0.000000 0.519317 -0.854582
vn -0.000000 0.285913 -0.958256
vn -0.000000 0.285913 -0.958256
vn 0.000000 -1.000000 0.000000
vn 0.000000 -0.963923 0.266180
vn 0.000000 -0.963923 0.266180
vn 0.000000 -1.000000 0.000000
vn 0.000000 -0.963923 0.266180
vn 0.000000 -0.832050 0.554700
vn 0.000000 -0.832050 0.554700
vn 0.000000 -0.963923 0.266180
vn 0.000000 -0.832050 0.554700
vn 0.000000 -0.527750 0.849400
vn 0.000000 -0.527750 0.849400
vn 0.000000 -0.832050 0.554700
vn 0.000000 -0.527750 0.849400
vn 0.000000 -0.285914 0.958255
vn 0.000000 -0.285914 0.958255
vn 0.000000 -0.527750 0.849400
vn 0.997860 0.018694 -0.062651
vn 0.997860 0.018694 -0.062651
vn 0.997860 0.018694 -0.062651
vn 0.997860 0.018694 -0.062651
vn 0.997173 0.053196 -0.053076
vn 0.997173 0.053196 -0.053076
vn 0.997172 0.053196 -0.053077
vn 0.997173 0.053196 -0.053076
vn 0.996202 0.079536 -0.035430
vn 0.996202 0.079536 -0.035430
vn 0.996202 0.079536 -0.035430
vn 0.996202 0.079536 -0.035430
vn 0.995518 0.093756 -0.012433
vn 0.995518 0.093756 -0.012433
vn 0.995518 0.093756 -0.012433
vn 0.995518 0.093756 -0.012433
vn -0.997861 0.018692 -0.062647
vn -0.997861 0.018692 -0.062647
vn -0.997861 0.018692 -0.062647
vn -0.997861 0.018692 -0.062647
vn -0.997173 0.053190 -0.053073
vn -0.997173 0.053190 -0.053073
vn -0.997173 0.053190 -0.053073
vn -0.997173 0.053190 -0.053073
vn -0.996203 0.079531 -0.035428
vn -0.996203 0.079531 -0.035428
vn -0.996203 0.079531 -0.035428
vn -0.996203 0.079531 -0.035428
vn -0.995518 0.093747 -0.012432
vn -0.995518 0.093747 -0.012432
vn -0.995518 0.093747 -0.012432
vn -0.995518 0.093747 -0.012432
vn 0.000000 1.000000 0.000000
vn 0.000000 0.963923 0.266180
vn 0.000000 0.963923 0.266180
vn 0.000000 1.000000 0.000000
vn 0.000000 0.963923 0.266180
vn 0.000000 0.832050 0.554700
vn 0.000000 0.832050 0.554700
vn 0.000000 0.963923 0.266180
vn 0.000000 0.832050 0.554700
vn 0.000000 0.519317 0.854582
vn 0.000000 0.519317 0.854582
vn 0.000000 0.832050 0.554700
vn 0.000000 0.519317 0.854582
vn 0.000000 0.285913 0.958256
vn 0.000000 0.285913 0.958256
vn 0.000000 0.519317 0.854582
vn 0.000000 -1.000000 0.000000
vn 0.000000 -1.000000 0.000000
vn 0.000000 -0.963923 -0.266180
vn 0.000000 -0.963923 -0.266180
vn 0.000000 -0.963923 -0.266180
vn 0.000000 -0.963923 -0.266180
vn 0.000000 -0.832050 -0.554700
vn 0.000000 -0.832050 -0.554700
vn 0.000000 -0.832050 -0.554700
vn 0.000000 -0.832050 -0.554700
vn 0.000000 -0.527750 -0.849400
vn 0.000000 -0.527750 -0.849400
vn 0.000000 -0.527750 -0.849400
vn 0.000000 -0.527750 -0.849400
vn 0.000000 -0.285914 -0.958255
vn 0.000000 -0.285914 -0.958255
vn 0.997860 0.018694 0.062651
vn 0.997860 0.018694 0.062651
vn 0.997860 0.018694 0.062651
vn 0.997860 0.018694 0.062651
vn 0.997173 0.053196 0.053076
vn 0.997173 0.053196 0.053076
vn 0.997173 0.053196 0.053076
vn 0.997173 0.053196 0.053076
vn 0.996202 0.079536 0.035430
vn 0.996202 0.079536 0.035430
vn 0.996202 0.079536 0.035430
vn 0.996202 0.079536 0.035430
vn 0.995518 0.093756 0.012433
vn 0.995518 0.093756 0.012433
vn 0.995518 0.093756 0.012433
vn 0.995518 0.093756 0.012433
vn -0.997861 0.018692 0.062647
vn -0.997861 0.018692 0.062647
vn -0.997861 0.018692 0.062647
vn -0.997861 0.018692 0.062647
vn -0.997173 0.053192 0.053073
vn -0.997173 0.053192 0.053073
vn -0.997173 0.053192 0.053073
vn -0.997173 0.053192 0.053073
vn -0.996202 0.079532 0.035428
vn -0.996202 0.079532 0.035428
vn -0.996202 0.079532 0.035428
vn -0.996202 0.079532 0.035428
vn -0.995518 0.093749 0.012432
vn -0.995518 0.093749 0.012432
vn -0.995518 0.093749 0.012432
vn -0.995518 0.093749 0.012432
vn 0.000000 0.991322 0.131457
vn 0.000000 0.991322 0.131457
vn 0.000000 0.991322 0.131457
vn 0.000000 0.991322 0.131457
vn -0.000000 0.991322 -0.131457
vn -0.000000 0.991322 -0.131457
vn -0.000000 0.991322 -0.131457
vn -0.000000 0.991322 -0.131457
s off
g calha2:polySurface14
usemtl calha2:lambert3SG
f 11/1/1 12/109/2 14/3/3 13/127/4
f 13/4/5 14/113/6 16/5/7 15/131/8
f 15/6/9 16/117/10 18/7/11 17/135/12
f 17/8/13 18/121/14 20/9/15 19/10/16
f 1/105/17 2/12/18 7/115/19 6/14/20
f 2/125/21 3/15/22 8/119/23 7/13/24
f 3/129/25 4/17/26 9/123/27 8/16/28
f 4/133/29 5/19/30 10/20/31 9/18/32
f 19/21/33 5/22/34 4/134/35 17/24/36
f 17/136/37 4/23/38 3/130/39 15/26/40
f 15/132/41 3/25/42 2/126/43 13/28/44
f 13/128/45 2/27/46 1/29/47 11/111/48
f 18/122/49 9/32/50 10/33/51 20/34/52
f 16/118/53 8/36/54 9/124/55 18/31/56
f 14/114/57 7/38/58 8/120/59 16/35/60
f 12/39/61 6/107/62 7/116/63 14/37/64
f 11/112/65 29/41/66 30/83/67 12/2/68
f 29/93/69 31/43/70 32/87/71 30/42/72
f 31/97/73 33/45/74 34/91/75 32/44/76
f 33/101/77 35/47/78 36/48/79 34/46/80
f 1/11/81 6/108/82 25/49/83 21/95/84
f 21/50/85 25/81/86 26/51/87 22/99/88
f 22/52/89 26/85/90 27/53/91 23/103/92
f 23/54/93 27/89/94 28/55/95 24/56/96
f 35/57/97 33/102/98 23/59/99 24/60/100
f 33/58/101 31/98/102 22/62/103 23/104/104
f 31/61/105 29/94/106 21/64/107 22/100/108
f 29/63/109 11/30/110 1/106/111 21/96/112
f 34/65/113 36/66/114 28/67/115 27/90/116
f 32/69/117 34/92/118 27/68/119 26/86/120
f 30/71/121 32/88/122 26/70/123 25/82/124
f 12/110/125 30/84/126 25/72/127 6/40/128
f 10/73/129 5/74/130 19/75/131 20/76/132
f 36/77/133 35/78/134 24/79/135 28/80/136
